<svg xmlns="http://www.w3.org/2000/svg" viewBox="0 0 85.348 85.348" xml:space="preserve" fill="currentColor"><path d="M77.45 57.691V16.595a3.173 3.173 0 0 0-3.164-3.16h-63.22a3.17 3.17 0 0 0-3.167 3.16v41.096L0 67.175a4.74 4.74 0 0 0 4.738 4.738H80.61a4.74 4.74 0 0 0 4.738-4.738zM49.002 70.339H36.358c-.44 0-.791-.351-.791-.791s.351-.791.791-.791h12.644c.433 0 .791.351.791.791a.8.8 0 0 1-.791.791m-19.358-3.16 2.412-2.895h21.237l2.412 2.895zm43.354-15.078a2.76 2.76 0 0 1-2.756 2.759H15.106a2.77 2.77 0 0 1-2.756-2.759V19.032a2.76 2.76 0 0 1 2.756-2.759h55.136a2.767 2.767 0 0 1 2.756 2.759z"/><path d="M56.052 42.778a7.4 7.4 0 0 1-2.058-1.335 6 6 0 0 1-1.12-1.378 8 8 0 0 1-.58-1.138c-.154-.39-.247-.812-.351-1.217a5 5 0 0 1-.143-.909c-.025-.673-.014-1.335.143-1.997.132-.54.297-1.059.54-1.553a6.63 6.63 0 0 1 2.623-2.809c.079-.061.168-.111.268-.175-.075-.075-.122-.136-.175-.2a8 8 0 0 0-2.212-1.89 13 13 0 0 0-1.432-.698 5 5 0 0 0-.895-.261c-.279-.064-.58-.089-.862-.125-.748-.089-1.489.014-2.215.154-.354.064-.687.183-1.031.293-.283.082-.558.197-.83.293-.24.082-.483.197-.727.261-.372.104-.755.2-1.134.276-.68.147-1.353.025-2.011-.136-.308-.075-.601-.19-.902-.286-.354-.115-.698-.24-1.056-.358-.308-.1-.616-.222-.934-.286-.372-.079-.759-.132-1.142-.2-.82-.129-1.628 0-2.426.215-.412.107-.812.29-1.202.462-.63.265-1.192.655-1.714 1.081-.705.555-1.299 1.224-1.811 1.958-.347.487-.641.988-.83 1.553q-.226.628-.404 1.278a9 9 0 0 0-.222 1.034c-.057.387-.082.784-.1 1.174-.021.476-.029.952-.014 1.417.018.447.061.895.107 1.335q.074.627.186 1.26c.057.301.136.594.215.891.111.429.218.863.358 1.281.161.483.34.963.537 1.424.265.623.54 1.242.855 1.843a21.4 21.4 0 0 0 1.904 2.963c.48.63.984 1.231 1.593 1.746.701.608 1.474 1.063 2.412 1.231.812.14 1.564-.029 2.301-.308.372-.147.73-.308 1.099-.462a6.4 6.4 0 0 1 1.936-.49c.812-.075 1.603-.057 2.384.175.433.125.859.286 1.274.462.594.243 1.17.519 1.818.623.888.14 1.682-.064 2.444-.483a6.5 6.5 0 0 0 1.782-1.46c.501-.58.97-1.188 1.417-1.811.455-.63.888-1.27 1.267-1.943.462-.823.859-1.693 1.285-2.541.05-.097.011-.165-.075-.211-.054-.009-.101-.009-.14-.023"/><path d="M43.945 27.027a6.7 6.7 0 0 0 1.564-.755 6.7 6.7 0 0 0 1.779-1.693 7.5 7.5 0 0 0 1.152-2.265c.186-.601.301-1.21.258-1.9 0-.136.007-.329 0-.523-.007-.222-.047-.261-.258-.222-.455.097-.923.175-1.364.34q-.769.3-1.467.719c-1.077.637-1.911 1.51-2.537 2.588a7.5 7.5 0 0 0-.691 1.578 5.3 5.3 0 0 0-.186 2.205c.014.132.054.193.19.19a5.3 5.3 0 0 0 1.56-.262"/><g/><g/><g/><g/><g/><g/><g/><g/><g/><g/><g/><g/><g/><g/><g/></svg>
