<svg fill="currentColor" width="350.31" height="350.311" viewBox="0 0 350.31 350.311" xml:space="preserve" xmlns="http://www.w3.org/2000/svg"><path d="M266.542 312.354c8.798-5.155 11.376-7.37 14.304-14.369 1.413-6.705 1.639-7.62 1.297-11.738-.238-6.177-3.909-10.23-5.137-13.254 7.847-4.284 12.728-10.02 14.525-17.066.498-1.936.729-3.982.762-6.085.221-14.299-6.962-17.815-6.962-17.815s14.455-8.585 14.338-25.117c-.114-16.533-11.537-21.033-25.438-20.978l-69.488-.296c-3.24-6.766-8.58-11.016-15.676-16.1-18.327-8.958-38.771-1.528-48.557 4.23-22.495 13.305-37.542 25.917-53.006 31.056-19.012 6.32-41.99 4.558-41.99 4.558l-.393 96.673c39.36.16 63.335 14.095 83.341 22.394 45.336 18.807 77.09 18.617 93.699 18.07 39.605 1.616 50.347-18.624 44.381-34.163"/><path d="M208.584 116.043c9.01 12.98 6.24 43.357-.442 60.79l-.115 10.421q12.673.05 25.35.103a9027 9027 0 0 0 .109-10.221c-6.303-17.611-10.116-48.062-.84-60.822 16.81-4.88 33.665-26.618 34.024-58.585.208-20.195-13.987-53.991-44.419-54.832-.148-.02-.654-.02-.786-.022v.023c-30.454.167-43.583 36.75-43.788 54.187-.355 31.973 14.19 53.707 30.907 58.958"/><g/><g/><g/><g/><g/><g/><g/><g/><g/><g/><g/><g/><g/><g/><g/></svg>
