<svg xmlns="http://www.w3.org/2000/svg" viewBox="-1 10 102 81" xml:space="preserve" fill="currentColor"><path d="M6.145 11.108a6.12 6.12 0 0 1 5.629 3.723l10.378 6.214a6 6 0 0 1 .443.265l.022.014.18.126a8.25 8.25 0 0 1 5.514 1.755l.003-.002 21.522 12.89q.078.041.152.085a12.7 12.7 0 0 1 7.678 2.708l25.076 15.017C92.343 54.321 100 62.237 100 71.942 100 81.915 91.915 90 81.942 90c-7.833 0-14.501-4.989-17.002-11.961L42.582 59.407a12.77 12.77 0 0 1-5.016-6.96l-19.067-15.89h.001a8.3 8.3 0 0 1-3.479-5.48l-9.309-7.758a6.114 6.114 0 0 1 .433-12.211m75.797 76.087c8.424 0 15.254-6.829 15.254-15.253 0-8.425-6.83-15.254-15.254-15.254s-15.254 6.829-15.254 15.254c0 8.424 6.83 15.253 15.254 15.253M72.83 56.35s3.903-1.991 7.3-2.416L58.164 41.255s-3.228-1.708-5.851-1.746c-3.245-.044-4.861 1.126-4.861 1.126zm-27.211 3.541 18.939 14.946c-.219-.754-.256-1.169-.256-1.911L42.167 56.35c1.129 2.005 3.452 3.541 3.452 3.541m-3.197-1.71q.434.37.893.692c-4.209-4.359-4.485-11.285-.462-15.975 4.024-4.691 10.911-5.47 15.858-1.973q-.388-.404-.819-.776c-4.979-4.271-12.478-3.698-16.75 1.281s-3.699 12.479 1.28 16.751m.159-19.756s3.009-1.646 5.389-1.943L28.568 25.057s-2.117-1.402-3.953-1.427c-2.273-.031-3.552.994-3.552.994zm-22.165-2.223L37.48 50.288c-.153-.527-.18-.818-.18-1.339L18 33.721c.791 1.405 2.416 2.481 2.416 2.481m-2.072-.915q.274.233.559.434a7.441 7.441 0 0 1 9.649-11.245q-.243-.252-.515-.485a7.44 7.44 0 0 0-10.494.803 7.44 7.44 0 0 0 .801 10.493m3.474-13.382-9.719-5.723s-1.135-.6-2.054-.612c-1.14-.016-1.706.395-1.706.395l10.78 6.915c.001-.001 1.509-.826 2.699-.975M7.427 23.193l7.67 6.333a1.8 1.8 0 0 1-.081-.602l-8.677-6.845c.355.631 1.088 1.114 1.088 1.114m-1.369-.414q.17.145.349.272a4.67 4.67 0 0 1 6.054-7.055q-.153-.16-.324-.305a4.666 4.666 0 0 0-6.582.504 4.667 4.667 0 0 0 .503 6.584m-2.853-.956q.225.139.453.255a5.494 5.494 0 0 1 5.808-9.267q-.205-.157-.429-.298a5.495 5.495 0 0 0-7.572 1.738 5.495 5.495 0 0 0 1.74 7.572"/><path d="M80.463 65.946a4.942 4.942 0 1 1 0 9.883 4.942 4.942 0 1 1 0-9.883m-1.359 5.723a1.875 1.875 0 1 0-.002-3.75 1.875 1.875 0 0 0 .002 3.75"/><path d="M83.021 57.332c8.258 0 14.976 6.717 14.976 14.976s-6.718 14.976-14.976 14.976c-8.257 0-14.976-6.717-14.976-14.976s6.718-14.976 14.976-14.976M69.636 71.148c0 6.254 5.088 11.342 11.342 11.342S92.32 77.402 92.32 71.148s-5.088-11.343-11.342-11.343c-6.254.001-11.342 5.09-11.342 11.343m13.385 15.005c7.635 0 13.847-6.212 13.847-13.846S90.656 58.46 83.021 58.46c-.869 0-1.72.082-2.545.236a11 11 0 0 1 .503-.012c6.872 0 12.462 5.592 12.462 12.463S87.85 83.61 80.979 83.61c-4.721 0-8.837-2.64-10.951-6.52 1.95 5.287 7.038 9.063 12.993 9.063"/></svg>
