<svg xmlns="http://www.w3.org/2000/svg" viewBox="-9 30 122 40" xml:space="preserve" fill="currentColor"><path d="M-4.518 43.386a6.12 6.12 0 0 1 6.746-.179l12.066-.862a6 6 0 0 1 .514-.037l.027-.001h.22a8.25 8.25 0 0 1 5.523-1.725l.001-.004 25.023-1.785q.088-.012.173-.018a12.7 12.7 0 0 1 7.843-2.186l29.155-2.081c8.104-5.165 18.917-3.072 24.483 4.877 5.72 8.17 3.735 19.43-4.434 25.15-6.417 4.493-14.74 4.231-20.788-.046l-29.002-2.438a12.77 12.77 0 0 1-8.1-2.824l-24.733-2.08a8.3 8.3 0 0 1-5.993-2.494L2.131 53.637a6.114 6.114 0 0 1-6.65-10.25m105.732 18.85c6.9-4.831 8.578-14.343 3.746-21.243-4.832-6.902-14.344-8.578-21.244-3.746s-8.579 14.343-3.746 21.244c4.831 6.9 14.343 8.577 21.244 3.746m-25.156-20.04s2.055-3.87 4.594-6.167l-25.266 2.213s-3.624.453-5.794 1.926c-2.684 1.825-3.336 3.71-3.336 3.71zm-20.26 18.507 24.087 1.38c-.611-.491-.88-.81-1.305-1.418l-27.64-.882c2.075.995 4.859.92 4.859.92m-3.6.433q.568.055 1.129.055c-5.948-1.156-10.147-6.672-9.542-12.82.606-6.152 5.8-10.74 11.859-10.713q-.55-.108-1.116-.166c-6.529-.642-12.343 4.128-12.986 10.657s4.127 12.344 10.656 12.987M40.997 44.864s1.52-3.074 3.3-4.683l-22.447 1.77s-2.538.066-4.056 1.099c-1.88 1.278-2.34 2.851-2.34 2.851zM21.565 55.756l22.058 1.752c-.428-.344-.617-.567-.916-.994L18.163 55.11c1.454.697 3.402.646 3.402.646m-2.222.44q.358.033.707.034a7.441 7.441 0 0 1 1.454-14.746q-.343-.067-.7-.101a7.44 7.44 0 0 0-8.136 6.676 7.44 7.44 0 0 0 6.675 8.136m-4.83-12.954-11.244.886s-1.274.16-2.033.677c-.943.641-1.171 1.302-1.171 1.302l12.797-.518c0-.002.762-1.543 1.651-2.347m-11.05 9.31 9.916.788a1.8 1.8 0 0 1-.412-.447l-11.034-.63c.653.313 1.53.288 1.53.288m-1.358.446q.222.022.442.023a4.67 4.67 0 0 1 .912-9.252q-.217-.043-.44-.064a4.666 4.666 0 0 0-5.103 4.189 4.667 4.667 0 0 0 4.189 5.104m-2.886.854q.264-.016.518-.051a5.494 5.494 0 0 1-.558-10.923q-.258-.01-.522.002a5.495 5.495 0 0 0-5.206 5.767A5.495 5.495 0 0 0-.781 53.85"/><path d="M87.813 45.68a4.942 4.942 0 1 1 5.669 8.095 4.942 4.942 0 1 1-5.669-8.095m2.17 5.467a1.875 1.875 0 1 0-2.153-3.07 1.875 1.875 0 0 0 2.153 3.07"/><path d="M84.968 37.156c6.764-4.736 16.12-3.087 20.857 3.678s3.087 16.121-3.677 20.858c-6.764 4.736-16.12 3.087-20.858-3.678s-3.087-16.121 3.678-20.858m-3.04 18.995c3.587 5.123 10.673 6.373 15.796 2.785s6.373-10.673 2.786-15.796-10.674-6.373-15.797-2.786-6.371 10.675-2.785 15.797m19.571 4.614c6.254-4.38 7.78-13.03 3.401-19.284s-13.03-7.78-19.285-3.4a14 14 0 0 0-1.95 1.652 11 11 0 0 1 .406-.298c5.629-3.942 13.415-2.567 17.356 3.061s2.57 13.416-3.06 17.357c-3.867 2.708-8.752 2.906-12.71.94 4.63 3.213 10.964 3.388 15.842-.028"/></svg>
