<svg xmlns="http://www.w3.org/2000/svg" xmlns:xlink="http://www.w3.org/1999/xlink" version="1.1" viewBox="-1 10 102 81" enable-background="new 0 0 100 100" xml:space="preserve" fill="currentColor">
  <g transform="translate(100, 0) scale(-1, 1)">
    <path d="M93.855,11.108c-2.528,0-4.698,1.535-5.629,3.723l-10.378,6.214c-0.151,0.082-0.299,0.171-0.443,0.265l-0.022,0.014v0  c-0.062,0.041-0.12,0.085-0.18,0.126c-0.134-0.006-0.269-0.01-0.406-0.01c-1.928,0-3.701,0.661-5.108,1.765l-0.003-0.002  L50.164,36.093c-0.052,0.027-0.102,0.056-0.152,0.085c-2.895,0.04-5.556,1.045-7.678,2.708L17.258,53.903  C7.657,54.321,0,62.237,0,71.942C0,81.915,8.085,90,18.058,90c7.833,0,14.501-4.989,17.002-11.961l22.358-18.632  c2.392-1.651,4.192-4.099,5.016-6.96l19.067-15.89H81.5c1.816-1.254,3.107-3.212,3.479-5.48l9.309-7.758  c3.174-0.222,5.682-2.866,5.682-6.097C99.969,13.845,97.232,11.108,93.855,11.108z M18.058,87.195  c-8.424,0-15.254-6.829-15.254-15.253c0-8.425,6.83-15.254,15.254-15.254s15.254,6.829,15.254,15.254  C33.312,80.366,26.482,87.195,18.058,87.195z M27.17,56.35c0,0-3.903-1.991-7.3-2.416l21.966-12.679c0,0,3.228-1.708,5.851-1.746  c3.245-0.044,4.861,1.126,4.861,1.126L27.17,56.35z M54.381,59.891L35.442,74.837c0.219-0.754,0.256-1.169,0.256-1.911L57.833,56.35  C56.704,58.355,54.381,59.891,54.381,59.891z M57.578,58.181c-0.29,0.248-0.587,0.476-0.893,0.692  c4.209-4.359,4.485-11.285,0.462-15.975c-4.024-4.691-10.911-5.47-15.858-1.973c0.259-0.269,0.531-0.529,0.819-0.776  c4.979-4.271,12.478-3.698,16.75,1.281C63.13,46.409,62.557,53.909,57.578,58.181z M57.419,38.425c0,0-3.009-1.646-5.389-1.943  l19.402-11.425c0,0,2.117-1.402,3.953-1.427c2.273-0.031,3.552,0.994,3.552,0.994L57.419,38.425z M79.584,36.202L62.52,50.288  c0.153-0.527,0.18-0.818,0.18-1.339L82,33.721C81.209,35.126,79.584,36.202,79.584,36.202z M81.656,35.287  c-0.183,0.156-0.368,0.3-0.559,0.434c2.638-2.731,2.81-7.07,0.289-10.009s-6.836-3.427-9.938-1.236  c0.163-0.168,0.333-0.33,0.515-0.485c3.12-2.677,7.818-2.317,10.494,0.803C85.134,27.913,84.775,32.611,81.656,35.287z   M78.182,21.905l9.719-5.723c0,0,1.135-0.6,2.054-0.612c1.14-0.016,1.706,0.395,1.706,0.395l-10.78,6.915  C80.88,22.879,79.372,22.054,78.182,21.905z M92.573,23.193l-7.67,6.333c0.069-0.237,0.081-0.368,0.081-0.602l8.677-6.845  C93.306,22.71,92.573,23.193,92.573,23.193z M93.942,22.779c-0.113,0.097-0.23,0.187-0.349,0.272  c1.653-1.713,1.762-4.437,0.179-6.28c-1.58-1.844-4.287-2.15-6.233-0.775c0.103-0.106,0.209-0.208,0.324-0.305  c1.956-1.679,4.903-1.454,6.582,0.504C96.126,18.152,95.9,21.1,93.942,22.779z M96.795,21.823c-0.15,0.093-0.301,0.177-0.453,0.255  c2.223-1.704,2.826-4.852,1.309-7.273c-1.518-2.422-4.613-3.252-7.117-1.994c0.137-0.104,0.279-0.205,0.429-0.298  c2.569-1.611,5.961-0.832,7.572,1.738C100.145,16.823,99.366,20.212,96.795,21.823z"/>
    <path d="M19.537,65.946c-2.729,0-4.942,2.211-4.942,4.942c0,2.729,2.212,4.941,4.942,4.941s4.942-2.212,4.942-4.941  C24.479,68.157,22.266,65.946,19.537,65.946z M20.896,71.669c-1.035,0-1.874-0.84-1.874-1.875c0-1.036,0.839-1.874,1.874-1.874  c1.036,0,1.875,0.838,1.875,1.874C22.771,70.829,21.932,71.669,20.896,71.669z"/>
    <path d="M16.979,57.332c-8.258,0-14.976,6.717-14.976,14.976s6.718,14.976,14.976,14.976  c8.257,0,14.976-6.717,14.976-14.976S25.237,57.332,16.979,57.332z M30.364,71.148c0,6.254-5.088,11.342-11.342,11.342  c-6.254,0-11.342-5.088-11.342-11.342s5.088-11.343,11.342-11.343C25.276,59.806,30.364,64.895,30.364,71.148z M16.979,86.153  c-7.635,0-13.847-6.212-13.847-13.846c0-7.635,6.212-13.847,13.847-13.847c0.869,0,1.72,0.082,2.545,0.236  c-0.167-0.008-0.334-0.012-0.503-0.012c-6.872,0-12.462,5.592-12.462,12.463s5.591,12.463,12.462,12.463  c4.721,0,8.837-2.64,10.951-6.52C28.022,82.377,22.934,86.153,16.979,86.153z"/>
  </g>
</svg>
